<svg width="36" height="32" viewBox="0 0 36 32" fill="none" xmlns="http://www.w3.org/2000/svg">
<path d="M23.4375 19.375L9.90625 25.25L34.8594 0.296875L23.4375 19.375Z" fill="url(#paint0_linear_1211_371)"/>
<path d="M29.5625 25.4219L9.90625 25.25L23.4375 19.375L29.5625 25.4219Z" fill="url(#paint1_linear_1211_371)"/>
<path d="M35.5156 19.4687L29.5625 25.4219L23.4375 19.375L35.5156 19.4687Z" fill="url(#paint2_linear_1211_371)"/>
<path d="M35.5156 19.4688L27.6562 15.1563L28.8125 14L32.3438 13.9531L35.5156 19.4688Z" fill="url(#paint3_linear_1211_371)"/>
<path d="M35 7.8125L23.4375 19.375L34.8594 0.296875L35 7.8125Z" fill="url(#paint4_linear_1211_371)"/>
<path d="M35.5156 19.4687L23.4375 19.375L27.6563 15.1562L35.5156 19.4687Z" fill="url(#paint5_linear_1211_371)"/>
<path d="M12.5625 12.625L26.0938 6.75L1.14062 31.7031L12.5625 12.625Z" fill="url(#paint6_linear_1211_371)"/>
<path d="M6.4375 6.57812L26.0937 6.75L12.5625 12.625L6.4375 6.57812Z" fill="url(#paint7_linear_1211_371)"/>
<path d="M0.484375 12.5312L6.4375 6.57812L12.5625 12.625L0.484375 12.5312Z" fill="url(#paint8_linear_1211_371)"/>
<path d="M0.484375 12.5312L8.34375 16.8438L7.1875 18L3.65625 18.0469L0.484375 12.5312Z" fill="url(#paint9_linear_1211_371)"/>
<path d="M1 24.1875L12.5625 12.625L1.14063 31.7031L1 24.1875Z" fill="url(#paint10_linear_1211_371)"/>
<path d="M0.484375 12.5312L12.5625 12.625L8.34375 16.8438L0.484375 12.5312Z" fill="url(#paint11_linear_1211_371)"/>
<defs>
<linearGradient id="paint0_linear_1211_371" x1="12.4588" y1="26.6616" x2="35.2077" y2="3.16139" gradientUnits="userSpaceOnUse">
<stop stop-color="#4C30FF"/>
<stop offset="1" stop-color="#CCB5FF"/>
</linearGradient>
<linearGradient id="paint1_linear_1211_371" x1="30.0812" y1="22.8499" x2="10.006" y2="22.0434" gradientUnits="userSpaceOnUse">
<stop stop-color="#4C30FF"/>
<stop offset="1" stop-color="#CCB5FF"/>
</linearGradient>
<linearGradient id="paint2_linear_1211_371" x1="33.5063" y1="23.0709" x2="25.1757" y2="17.7234" gradientUnits="userSpaceOnUse">
<stop stop-color="#4C30FF"/>
<stop offset="1" stop-color="#CCB5FF"/>
</linearGradient>
<linearGradient id="paint3_linear_1211_371" x1="40.0028" y1="19.5353" x2="18.436" y2="9.52536" gradientUnits="userSpaceOnUse">
<stop stop-color="#CBABF8"/>
<stop offset="0.07" stop-color="#AF8FE8"/>
<stop offset="0.22" stop-color="#8061CF"/>
<stop offset="0.34" stop-color="#5E3FBC"/>
<stop offset="0.45" stop-color="#492BB1"/>
<stop offset="0.52" stop-color="#4224AD"/>
<stop offset="0.59" stop-color="#4624AF"/>
<stop offset="0.67" stop-color="#5426B6"/>
<stop offset="0.76" stop-color="#6B2AC2"/>
<stop offset="0.85" stop-color="#8B2ED3"/>
<stop offset="0.94" stop-color="#B434E9"/>
<stop offset="1" stop-color="#D139F8"/>
</linearGradient>
<linearGradient id="paint4_linear_1211_371" x1="36.0143" y1="0.830151" x2="26.2032" y2="19.237" gradientUnits="userSpaceOnUse">
<stop stop-color="#4C30FF"/>
<stop offset="1" stop-color="#CCB5FF"/>
</linearGradient>
<linearGradient id="paint5_linear_1211_371" x1="20.1044" y1="16.9389" x2="41.2292" y2="18.1764" gradientUnits="userSpaceOnUse">
<stop stop-color="#CBABF8"/>
<stop offset="0.02" stop-color="#C2A2F3"/>
<stop offset="0.09" stop-color="#9B7BDD"/>
<stop offset="0.17" stop-color="#7A5BCC"/>
<stop offset="0.25" stop-color="#6143BE"/>
<stop offset="0.33" stop-color="#5031B4"/>
<stop offset="0.42" stop-color="#4527AE"/>
<stop offset="0.52" stop-color="#4224AD"/>
<stop offset="0.59" stop-color="#4624AF"/>
<stop offset="0.67" stop-color="#5426B6"/>
<stop offset="0.76" stop-color="#6B2AC2"/>
<stop offset="0.85" stop-color="#8B2ED3"/>
<stop offset="0.94" stop-color="#B434E9"/>
<stop offset="1" stop-color="#D139F8"/>
</linearGradient>
<linearGradient id="paint6_linear_1211_371" x1="23.5344" y1="5.34106" x2="0.796529" y2="28.8303" gradientUnits="userSpaceOnUse">
<stop stop-color="#0061FF"/>
<stop offset="1" stop-color="#5FFFFF"/>
</linearGradient>
<linearGradient id="paint7_linear_1211_371" x1="5.912" y1="9.15281" x2="25.9872" y2="9.95935" gradientUnits="userSpaceOnUse">
<stop stop-color="#0061FF"/>
<stop offset="1" stop-color="#5FFEFF"/>
</linearGradient>
<linearGradient id="paint8_linear_1211_371" x1="2.50905" y1="8.93184" x2="10.8286" y2="14.2683" gradientUnits="userSpaceOnUse">
<stop stop-color="#0061FF"/>
<stop offset="1" stop-color="#5FFEFF"/>
</linearGradient>
<linearGradient id="paint9_linear_1211_371" x1="-3.99854" y1="12.4784" x2="17.5572" y2="22.4774" gradientUnits="userSpaceOnUse">
<stop stop-color="#80D8F8"/>
<stop offset="0.11" stop-color="#5FABE2"/>
<stop offset="0.24" stop-color="#3D7CCC"/>
<stop offset="0.36" stop-color="#245ABC"/>
<stop offset="0.45" stop-color="#1545B2"/>
<stop offset="0.52" stop-color="#103EAF"/>
<stop offset="0.6" stop-color="#143FB1"/>
<stop offset="0.69" stop-color="#2244BA"/>
<stop offset="0.78" stop-color="#394CC8"/>
<stop offset="0.88" stop-color="#5958DB"/>
<stop offset="0.99" stop-color="#8266F4"/>
<stop offset="1" stop-color="#8969F8"/>
</linearGradient>
<linearGradient id="paint10_linear_1211_371" x1="-0.0100192" y1="31.1615" x2="9.81213" y2="12.7657" gradientUnits="userSpaceOnUse">
<stop stop-color="#0061FF"/>
<stop offset="1" stop-color="#5FFEFF"/>
</linearGradient>
<linearGradient id="paint11_linear_1211_371" x1="15.8999" y1="15.0527" x2="-5.22493" y2="13.8153" gradientUnits="userSpaceOnUse">
<stop stop-color="#80D8F8"/>
<stop offset="0.04" stop-color="#6DBEEB"/>
<stop offset="0.11" stop-color="#5097D9"/>
<stop offset="0.18" stop-color="#3976C9"/>
<stop offset="0.26" stop-color="#275DBE"/>
<stop offset="0.34" stop-color="#1A4BB5"/>
<stop offset="0.42" stop-color="#1241B0"/>
<stop offset="0.52" stop-color="#103EAF"/>
<stop offset="0.6" stop-color="#143FB1"/>
<stop offset="0.69" stop-color="#2244BA"/>
<stop offset="0.78" stop-color="#394CC8"/>
<stop offset="0.88" stop-color="#5958DB"/>
<stop offset="0.99" stop-color="#8266F4"/>
<stop offset="1" stop-color="#8969F8"/>
</linearGradient>
</defs>
</svg>
